<?xml version="1.0" encoding="utf-8"?>
<svg version="1.1" id="Calque_1" xmlns="http://www.w3.org/2000/svg"
     xml:space="preserve" viewBox="25 10 100 110" width="40px" height="40px">
    <path class="st0" d="M74,114.9c-28.9,0-52.4-23.5-52.4-52.4S45.1,10.1,74,10.1s52.4,23.5,52.4,52.4S102.9,114.9,74,114.9z M74,14.6
	c-26.4,0-48,21.5-48,48s21.5,48,48,48s48-21.5,48-48S100.5,14.6,74,14.6z"/>
    <path class="st1" d="M74,20.8c-22.7,0-41.1,18.4-41.1,41.1c0,7.1,1.8,13.8,4.9,19.6c1.1-0.8,2.3-1.6,3.6-2.4
	C63.9,65.7,83.9,54.6,97.1,34c0,0-0.9,23.3-14.3,34.1c-3,2.4-5.5,4.3-7.9,5.8c6.8-3.6,12.7-7.6,17.3-13.1c0,0-0.4,15.6-11.9,22.6
	c-4.3,2.5-7.9,4-11.5,5.1c6.6-1.5,10.8-3.3,14.3-5.6c-2.9,9.7-9.2,14.8-19.1,16.2c-3.6,0.4-6.6-0.4-9.8-1.1
	c5.9,3.3,12.7,5.1,19.9,5.1c22.7,0,41.1-18.4,41.1-41.1S96.8,20.8,74,20.8z"/></svg>
