<svg version="1.0" xmlns="http://www.w3.org/2000/svg"
     width="40px" height="40px" viewBox="0 0 882.000000 980.000000"
     preserveAspectRatio="xMidYMid meet">
    <g transform="translate(0.000000,980.000000) scale(0.100000,-0.100000)" stroke="none">
        <path d="M3860 9789 c-1807 -88 -3319 -711 -3735 -1539 -373 -741 172 -1512
1415 -2003 1051 -415 2442 -568 3787 -417 1095 123 2063 454 2653 908 450 346
669 752 622 1152 -31 268 -164 513 -407 755 -776 773 -2518 1232 -4335 1144z"/>
        <path d="M10 5777 c0 -777 2 -949 15 -1018 85 -487 535 -941 1277 -1289 519
-244 1187 -430 1880 -523 107 -14 108 -14 108 43 0 44 28 195 61 330 79 318
237 664 453 987 92 138 238 329 315 413 l50 55 1 -952 0 -951 93 -7 c50 -4
121 -5 157 -3 l65 3 5 1045 5 1045 138 -135 c259 -252 425 -466 579 -745 180
-328 295 -701 324 -1059 l7 -86 36 5 c656 91 1188 223 1686 420 318 125 720
349 939 524 300 240 495 511 574 798 l27 98 3 969 3 969 -68 -64 c-766 -722
-2066 -1177 -3678 -1289 -82 -6 -298 -13 -480 -16 -1727 -33 -3296 368 -4244
1084 -51 39 -147 118 -212 177 l-119 106 0 -934z"/>
        <path d="M10 2919 c0 -1000 1 -1014 50 -1169 35 -108 117 -262 200 -372 515
-685 1779 -1198 3295 -1337 1994 -183 3967 284 4831 1143 183 183 293 344 359
530 66 183 65 169 65 1198 l0 929 -107 -97 c-593 -535 -1473 -920 -2568 -1123
-88 -16 -245 -41 -350 -55 -104 -15 -204 -29 -220 -31 l-31 -5 -12 -115 c-32
-300 -133 -634 -268 -884 -102 -189 -200 -318 -379 -501 -212 -217 -217 -226
-224 -500 l-6 -195 -157 -3 -158 -3 0 139 c0 164 8 217 61 380 94 292 99 338
99 1038 l0 581 -61 7 c-34 3 -104 6 -155 6 l-93 0 -3 -597 -4 -598 -43 -150
c-23 -82 -45 -153 -47 -157 -13 -20 -76 27 -181 136 -238 246 -410 539 -517
875 -36 113 -80 317 -91 421 -3 30 -8 71 -11 91 l-5 37 -97 11 c-293 36 -656
103 -954 177 -915 225 -1675 600 -2145 1058 l-73 70 0 -935z"/>
    </g>
</svg>